<svg width="28" height="28" viewBox="0 0 28 28" fill="none" xmlns="http://www.w3.org/2000/svg">
<g clip-path="url(#clip0_2_180)">
<path d="M7.63818 23.2573L9.05876 24.2043H28V23.2573H7.63818ZM17.5825 27.0457H23.2648V27.9928H17.5825V27.0457ZM15.6882 25.1514H25.1587V26.0986H15.6882V25.1514ZM23.4201 14.5899C25.0844 16.2543 25.0844 18.9528 23.4201 20.6172C21.7557 22.2812 19.0573 22.2812 17.3929 20.6172C15.7287 18.9528 15.7287 16.2543 17.3929 14.5899C19.0573 12.9257 21.7557 12.9257 23.4201 14.5899Z" fill="#F75D37"/>
<path d="M4.61416 22.6487C7.40719 18.0104 9.08237 12.7857 9.50712 7.38798L14.6179 12.5153C15.4246 10.919 15.1196 8.98535 13.8603 7.71499L13.41 7.26097C13.1101 6.95947 12.7647 6.70704 12.3864 6.51295L17.1404 6.5342C16.5823 4.8346 14.9989 3.68287 13.21 3.67546L12.5702 3.67262C12.1132 3.67135 11.6593 3.74598 11.2268 3.89346L14.6364 0.495778C13.0401 -0.310792 11.1069 -0.00576868 9.83656 1.2531L9.38249 1.7037C9.08084 2.00339 8.82842 2.34886 8.63457 2.72732C8.44347 2.34737 8.19401 1.9997 7.89527 1.69697L7.44479 1.24285C6.18641 -0.0275127 4.2561 -0.34998 2.6527 0.442183L6.03051 3.86975C5.59908 3.71873 5.14565 3.6401 4.68857 3.63705L4.04932 3.63438C2.26087 3.62626 0.667724 4.76329 0.0942403 6.45738L4.84865 6.47874C4.4685 6.66949 4.12076 6.91891 3.8182 7.21784L3.36389 7.66844C2.09365 8.92702 1.77125 10.8574 2.56368 12.4609L7.60405 7.49485C7.25677 12.6833 5.37568 17.6516 2.19955 21.769C1.48654 21.5662 0.761179 21.4097 0.0279879 21.3005L0 27.4562L10.8911 27.5033L10.8703 27.4774C9.18831 25.4037 7.04631 23.7505 4.61416 22.6487ZM3.31731 26.9983L2.3702 26.9941L2.37435 26.0469L3.3213 26.0512L3.31731 26.9983ZM6.16202 26.0639L5.215 26.0596L5.21961 25.1126L6.16675 25.1168L6.16202 26.0639Z" fill="#F75D37"/>
</g>
<defs>
<clipPath id="clip0_2_180">
<rect width="28" height="28" fill="white"/>
</clipPath>
</defs>
</svg>
