<svg width="28" height="28" viewBox="0 0 28 28" fill="none" xmlns="http://www.w3.org/2000/svg">
<g clip-path="url(#clip0_2_197)">
<path d="M8.0924 21.6182C7.83078 21.0906 7.63806 20.5293 7.52469 19.9549C7.32295 18.9324 7.36468 17.9005 7.64872 16.888L8.31881 14.4993L9.09521 11.7317L10.8734 13.5885L12.6101 10.82L14 8.60458L15.3897 10.82L17.1265 13.5884L18.9047 11.7316L19.6811 14.4992L20.3512 16.8879C20.6352 17.9005 20.6769 18.9323 20.4752 19.9549C20.3619 20.5292 20.1691 21.0906 19.9075 21.6181C22.8185 19.3215 24.3185 15.3799 23.2172 11.4541L21.9228 6.83982L19.5157 9.35325L14 0.56076L8.48418 9.35325L6.07711 6.83982L4.78266 11.4541C3.68136 15.38 5.18139 19.3216 8.0924 21.6182Z" fill="#F75D37"/>
<path d="M18.7716 17.3311L18.1015 14.9424L16.8555 16.2436L14 11.6919L11.1446 16.2436L9.89855 14.9424L9.22846 17.3311C8.35477 20.4456 10.6431 23.5798 13.8773 23.6378C13.9591 23.6393 14.041 23.6393 14.1228 23.6378C17.3569 23.5798 19.6453 20.4456 18.7716 17.3311ZM4.48219 22.9549C3.35442 23.3881 2.7913 24.6535 3.22454 25.7813L3.32216 26.0355C3.75534 27.1633 5.02075 27.7264 6.14857 27.2932L11.8843 25.09C9.78955 24.7009 7.86581 23.7201 6.31537 22.2508L4.48219 22.9549ZM23.5178 22.9549L21.6846 22.2508C20.1342 23.7201 18.2104 24.7009 16.1157 25.09L21.8514 27.2932C22.9792 27.7263 24.2447 27.1633 24.6778 26.0355L24.7755 25.7813C25.2087 24.6535 24.6456 23.3881 23.5178 22.9549ZM25.8125 19.2071H23.9673C23.6836 19.7593 23.3549 20.2873 22.9846 20.7857C22.9139 20.8804 22.8418 20.974 22.7683 21.0666L24.1061 21.4233C25.0607 21.79 25.8153 22.5064 26.231 23.4406C26.2809 23.5529 26.3255 23.6675 26.3645 23.784C27.3054 23.5394 28 22.6843 28 21.6669V21.3946C28 20.1865 27.0206 19.2071 25.8125 19.2071ZM5.28992 21.1383C5.19615 21.0226 5.10466 20.905 5.0155 20.7857C4.64519 20.2874 4.3165 19.7594 4.03277 19.2071H2.1875C0.979398 19.2071 0 20.1865 0 21.3946V21.6669C0 22.6844 0.694641 23.5394 1.63554 23.784C1.67461 23.6675 1.71916 23.5529 1.76903 23.4407C2.18471 22.5064 2.93934 21.79 3.89391 21.4234L5.28992 21.1383Z" fill="#F75D37"/>
</g>
<defs>
<clipPath id="clip0_2_197">
<rect width="28" height="28" fill="white"/>
</clipPath>
</defs>
</svg>
