<svg width="12" height="12" viewBox="0 0 12 12" fill="none" xmlns="http://www.w3.org/2000/svg">
<g clip-path="url(#clip0_2_207)">
<path d="M7.36825 1.23859L6.82899 1.7661L6.95649 2.51111C6.97709 2.63261 6.88404 2.74486 6.75924 2.74486C6.69151 2.74486 6.72669 2.75389 5.99998 2.37036L5.33397 2.72186C5.18771 2.79906 5.01576 2.67466 5.04346 2.51111L5.17096 1.7661L4.63171 1.23859C4.513 1.12259 4.57951 0.921435 4.74271 0.897585L5.48722 0.789083L5.82047 0.111574C5.89372 -0.0370786 6.10613 -0.0373036 6.17948 0.111574L6.51273 0.789083L7.25724 0.897585C7.42075 0.921485 7.4867 1.12284 7.36825 1.23859ZM3.91307 2.26213L3.88945 2.12438C3.98192 2.03423 4.08555 1.96158 4.04012 1.8218C3.99472 1.6821 3.86724 1.68402 3.74037 1.66557L3.67852 1.54024C3.60532 1.39189 3.39309 1.39179 3.31981 1.54024L3.25796 1.66557C3.13016 1.68415 3.00361 1.682 2.95821 1.8218C2.91281 1.9615 3.01708 2.03488 3.10888 2.12438L3.08526 2.26213C3.05731 2.42516 3.22891 2.54998 3.37546 2.47296L3.49914 2.40791C3.62577 2.47451 3.65339 2.49593 3.71587 2.49593C3.83927 2.49593 3.93412 2.38478 3.91307 2.26213ZM2.16305 3.26214L2.13942 3.12439C2.2319 3.03424 2.33552 2.96159 2.2901 2.82181C2.2447 2.68211 2.11722 2.68404 1.99034 2.66559L1.92849 2.54026C1.85529 2.39191 1.64306 2.39181 1.56979 2.54026L1.50794 2.66559C1.38013 2.68416 1.25358 2.68201 1.20818 2.82181C1.16278 2.96151 1.26706 3.03489 1.35886 3.12439L1.33523 3.26214C1.30728 3.42517 1.47888 3.55 1.62544 3.47297L1.74911 3.40792C1.87574 3.47452 1.90337 3.49595 1.96584 3.49595C2.08924 3.49595 2.1841 3.3848 2.16305 3.26214ZM8.91462 2.26213L8.89099 2.12438C8.98347 2.03423 9.0871 1.96158 9.04167 1.8218C8.99627 1.6821 8.86879 1.68402 8.74192 1.66557C8.68474 1.54969 8.64771 1.42877 8.50074 1.42877C8.35386 1.42877 8.31628 1.55059 8.25953 1.66557L8.12123 1.68567C7.95753 1.70947 7.89185 1.91127 8.01038 2.02683L8.11046 2.12438C8.08861 2.25173 8.04748 2.37136 8.16641 2.45773C8.28523 2.54408 8.38724 2.46758 8.50074 2.40791C8.62736 2.47451 8.65499 2.49593 8.71747 2.49593C8.84082 2.49593 8.93564 2.38478 8.91462 2.26213ZM10.6646 3.26214L10.641 3.12439C10.7335 3.03424 10.8371 2.96159 10.7917 2.82181C10.7463 2.68211 10.6188 2.68404 10.4919 2.66559C10.4348 2.54971 10.3977 2.42878 10.2508 2.42878C10.1039 2.42878 10.0663 2.55061 10.0096 2.66559L9.87126 2.68569C9.70756 2.70949 9.64188 2.91129 9.76041 3.02684L9.86048 3.12439C9.83863 3.25174 9.79751 3.37137 9.91643 3.45775C10.0353 3.5441 10.1373 3.4676 10.2508 3.40792C10.3774 3.47452 10.405 3.49595 10.4675 3.49595C10.5908 3.49595 10.6857 3.3848 10.6646 3.26214ZM3.05391 11.7943C3.05733 11.9069 2.96671 12 2.85398 12H1.79989C1.35806 12 0.999878 11.6418 0.999878 11.2V7.19993C0.999878 6.7581 1.35806 6.39991 1.79989 6.39991H2.84991C2.96036 6.39991 3.04991 6.48967 3.04991 6.60012C3.04968 10.3667 3.04338 11.4492 3.05391 11.7943ZM2.3749 8.39994C2.3749 8.28949 2.28535 8.19994 2.1749 8.19994C2.06444 8.19994 1.97489 8.28949 1.97489 8.39994V9.24996C1.97489 9.36041 2.06444 9.44996 2.1749 9.44996C2.28535 9.44996 2.3749 9.36041 2.3749 9.24996V8.39994ZM11 7.19993V11.2C11 11.6418 10.6418 12 10.2 12H9.1461C9.03339 12 8.94272 11.9069 8.94617 11.7943C8.95674 11.4498 8.95022 10.3688 8.94999 6.60012C8.94999 6.48967 9.03955 6.39991 9.15 6.39991H10.2C10.6419 6.39991 11 6.7581 11 7.19993ZM10.025 8.39994C10.025 8.28949 9.93546 8.19994 9.82501 8.19994C9.71456 8.19994 9.625 8.28949 9.625 8.39994V9.24996C9.625 9.36041 9.71456 9.44996 9.82501 9.44996C9.93546 9.44996 10.025 9.36041 10.025 9.24996V8.39994ZM5.49994 12H6.49996C6.61041 12 6.69996 11.9104 6.69996 11.8V9.92497C6.69996 9.81452 6.61041 9.72496 6.49996 9.72496H5.49994C5.38949 9.72496 5.29994 9.81452 5.29994 9.92497V11.8C5.29994 11.9104 5.38949 12 5.49994 12ZM8.54999 4.34988V11.8C8.54999 11.9104 8.46044 12 8.34999 12H7.29997C7.18952 12 7.09997 11.9104 7.09997 11.8V9.52496C7.09997 9.41451 7.01042 9.32496 6.89996 9.32496H5.09994C4.98949 9.32496 4.89994 9.41451 4.89994 9.52496V11.8C4.89994 11.9104 4.81038 12 4.69993 12H3.64992C3.53946 12 3.44991 11.9104 3.44991 11.8V4.34988C3.44991 3.90805 3.80809 3.54987 4.24993 3.54987H7.74998C8.19183 3.54987 8.54999 3.90805 8.54999 4.34988ZM6.99997 7.69993C6.99997 7.58948 6.91041 7.49993 6.79996 7.49993H5.19994C5.08949 7.49993 4.99994 7.58948 4.99994 7.69993C4.99994 7.81039 5.08949 7.89994 5.19994 7.89994H6.79996C6.91044 7.89994 6.99997 7.81039 6.99997 7.69993ZM7.34997 5.77491C7.34997 5.66445 7.26042 5.5749 7.14997 5.5749H4.84993C4.73948 5.5749 4.64993 5.66445 4.64993 5.77491C4.64993 5.88536 4.73948 5.97491 4.84993 5.97491H7.14997C7.26044 5.97491 7.34997 5.88536 7.34997 5.77491Z" fill="white"/>
</g>
<defs>
<clipPath id="clip0_2_207">
<rect width="12" height="12" fill="white"/>
</clipPath>
</defs>
</svg>
