<svg width="28" height="28" viewBox="0 0 28 28" fill="none" xmlns="http://www.w3.org/2000/svg">
<g clip-path="url(#clip0_2_188)">
<path d="M5.42574 5.2804L3.51705 7.7885H4.7669L2.8905 10.296H11.3805L9.50344 7.7885H10.7539L8.8446 5.2804H9.90132L7.13549 1.54181L4.36966 5.2804H5.42574Z" fill="#F75D37"/>
<path d="M6.40491 9.79603V13.2582C6.87633 13.054 7.36538 12.8931 7.86598 12.7776V9.79668H7.13544L6.40491 9.79603ZM22.0459 8.06949L20.1365 10.577H21.387L19.5106 13.0851H28L26.1236 10.577H27.3734L25.4641 8.06949H26.5208L23.755 4.3309L20.9891 8.06949H22.0459Z" fill="#F75D37"/>
<path d="M23.0245 12.5851V15.3341C23.2092 15.358 23.3933 15.3852 23.5761 15.4162C23.8848 15.4678 24.1897 15.5324 24.4862 15.6093V12.5851H23.755H23.0245ZM14.4719 24.771C12.3532 25.749 5.56913 28.3462 0.746044 24.1122C-0.962416 22.6124 0.583918 20.5829 2.17417 19.7309C4.99685 18.2227 2.77036 16.5459 5.01816 14.6856C6.24024 13.6735 8.66955 12.4818 12.9811 13.2375C15.7895 13.7297 17.4935 15.794 20.6346 15.7178C23.775 15.6403 28.8513 16.4509 27.8779 20.7915C27.8779 20.7915 27.3593 23.4527 22.677 23.7951C18.1749 24.1232 19.6134 22.3966 14.4719 24.771ZM12.3913 16.7255C10.9471 16.4723 9.01512 16.2727 7.88734 17.3972C6.48246 18.7963 4.11193 22.4896 7.01922 22.8449C8.94148 23.08 11.042 22.5433 12.755 21.7933C14.5326 21.0144 16.46 21.0002 18.038 19.8478C19.9241 18.4707 13.6974 16.9541 12.3913 16.7255ZM13.1942 4.28245C13.3809 4.28245 13.5585 4.3212 13.7194 4.39031C13.6457 4.11821 13.6603 3.82974 13.761 3.56647C13.8618 3.3032 14.0436 3.07871 14.2801 2.92535C14.5166 2.772 14.7958 2.69769 15.0772 2.71313C15.3587 2.72857 15.628 2.83296 15.8464 3.01127C15.893 2.71272 16.0398 2.4389 16.2626 2.23483C16.4855 2.03076 16.7711 1.90857 17.0726 1.88836C17.3741 1.86814 17.6735 1.9511 17.9216 2.1236C18.1697 2.29609 18.3518 2.54786 18.4378 2.83752C18.687 2.69288 18.9763 2.63297 19.2624 2.66678C19.5485 2.7006 19.8159 2.82631 20.0245 3.02506C20.2331 3.2238 20.3716 3.48484 20.4191 3.76899C20.4667 4.05313 20.4208 4.34504 20.2884 4.60088C20.4957 4.77751 20.6439 5.0135 20.7129 5.277C20.782 5.5405 20.7685 5.81883 20.6744 6.07444C20.5802 6.33005 20.4099 6.55062 20.1865 6.7064C19.963 6.86217 19.6972 6.94565 19.4248 6.94558C18.233 6.94493 14.9705 6.94558 13.1942 6.94558C12.8411 6.94558 12.5024 6.80529 12.2527 6.55557C12.0029 6.30585 11.8627 5.96716 11.8627 5.61401C11.8627 5.26086 12.0029 4.92217 12.2527 4.67245C12.5024 4.42274 12.8411 4.28245 13.1942 4.28245Z" fill="#F75D37"/>
</g>
<defs>
<clipPath id="clip0_2_188">
<rect width="28" height="28" fill="white"/>
</clipPath>
</defs>
</svg>
